<svg width="56" height="56" viewBox="0 0 56 56" fill="none" xmlns="http://www.w3.org/2000/svg">
<rect width="56" height="56" rx="8" fill="#CDE8E1"/>
<path d="M14.028 33.088L18.124 28.768C18.54 28.3413 18.8653 27.9733 19.1 27.664C19.3347 27.344 19.5 27.0507 19.596 26.784C19.7027 26.5173 19.756 26.24 19.756 25.952C19.756 25.3867 19.5747 24.944 19.212 24.624C18.8493 24.304 18.38 24.144 17.804 24.144C17.2387 24.144 16.7427 24.2827 16.316 24.56C15.8893 24.8267 15.5107 25.2427 15.18 25.808L14.124 24.928C14.5613 24.2027 15.0893 23.6587 15.708 23.296C16.3267 22.9227 17.0413 22.736 17.852 22.736C18.5347 22.736 19.1267 22.8693 19.628 23.136C20.14 23.4027 20.5347 23.776 20.812 24.256C21.0893 24.736 21.228 25.296 21.228 25.936C21.228 26.3947 21.1693 26.8053 21.052 27.168C20.9453 27.5307 20.748 27.904 20.46 28.288C20.1827 28.6613 19.7933 29.1093 19.292 29.632L15.98 33.04L14.028 33.088ZM14.028 34V33.088L15.308 32.656H21.484V34H14.028Z" fill="#048B67"/>
<path d="M31.5489 20.927C31.8483 20.0057 33.1517 20.0057 33.4511 20.9271L34.5206 24.2188C34.6545 24.6309 35.0385 24.9098 35.4717 24.9098H38.9329C39.9016 24.9098 40.3044 26.1494 39.5207 26.7188L36.7205 28.7533C36.37 29.0079 36.2234 29.4593 36.3572 29.8713L37.4268 33.1631C37.7261 34.0844 36.6717 34.8506 35.888 34.2812L33.0878 32.2467C32.7373 31.9921 32.2627 31.9921 31.9122 32.2467L29.112 34.2812C28.3283 34.8506 27.2739 34.0844 27.5732 33.1631L28.6428 29.8713C28.7766 29.4593 28.63 29.0079 28.2795 28.7533L25.4793 26.7188C24.6956 26.1494 25.0984 24.9098 26.0671 24.9098H29.5283C29.9615 24.9098 30.3455 24.6309 30.4794 24.2188L31.5489 20.927Z" fill="#048B67"/>
</svg>
