<svg width="54" height="56" viewBox="0 0 54 56" fill="none" xmlns="http://www.w3.org/2000/svg">
<rect width="54" height="56" rx="8" fill="#9CBCE2"/>
<path d="M27 14C19.8175 14 14 16.7844 14 20.2222C14 23.66 19.8175 26.4445 27 26.4445C34.1825 26.4445 40 23.66 40 20.2222C40 16.7844 34.1825 14 27 14ZM14 23.3334V28C14 31.4378 19.8175 34.2222 27 34.2222C34.1825 34.2222 40 31.4378 40 28V23.3334C40 26.7711 34.1825 29.5555 27 29.5555C19.8175 29.5555 14 26.7711 14 23.3334ZM14 31.1111V35.7778C14 39.2155 19.8175 42 27 42C34.1825 42 40 39.2155 40 35.7778V31.1111C40 34.5489 34.1825 37.3333 27 37.3333C19.8175 37.3333 14 34.5489 14 31.1111Z" fill="#115FB7"/>
</svg>
